<?xml version="1.0" encoding="UTF-8" standalone="no"?>
<svg
   xmlns:dc="http://purl.org/dc/elements/1.1/"
   xmlns:cc="http://creativecommons.org/ns#"
   xmlns:rdf="http://www.w3.org/1999/02/22-rdf-syntax-ns#"
   xmlns:svg="http://www.w3.org/2000/svg"
   xmlns="http://www.w3.org/2000/svg"
   xmlns:sodipodi="http://sodipodi.sourceforge.net/DTD/sodipodi-0.dtd"
   xmlns:inkscape="http://www.inkscape.org/namespaces/inkscape"
   version="1.0"
   width="400.000000pt"
   height="400.000000pt"
   viewBox="0 0 400.000000 400.000000"
   preserveAspectRatio="xMidYMid meet"
   id="svg66"
   sodipodi:docname="Satyr.svg"
   inkscape:version="0.92.2 (5c3e80d, 2017-08-06)">
  <defs
     id="defs70" />
  <sodipodi:namedview
     pagecolor="#ffffff"
     bordercolor="#666666"
     borderopacity="1"
     objecttolerance="10"
     gridtolerance="10"
     guidetolerance="10"
     inkscape:pageopacity="0"
     inkscape:pageshadow="2"
     inkscape:window-width="1366"
     inkscape:window-height="671"
     id="namedview68"
     showgrid="false"
     inkscape:zoom="0.90509668"
     inkscape:cx="550.56476"
     inkscape:cy="239.70026"
     inkscape:window-x="1920"
     inkscape:window-y="339"
     inkscape:window-maximized="1"
     inkscape:current-layer="svg66" />
  <metadata
     id="metadata60">
Created by potrace 1.15, written by Peter Selinger 2001-2017
<rdf:RDF>
  <cc:Work
     rdf:about="">
    <dc:format>image/svg+xml</dc:format>
    <dc:type
       rdf:resource="http://purl.org/dc/dcmitype/StillImage" />
    <dc:title />
  </cc:Work>
</rdf:RDF>
</metadata>
  <g
     transform="translate(0.000000,400.000000) scale(0.100000,-0.100000)"
     fill="#000000"
     stroke="none"
     id="g64">
    <path
       d="m 1275,3788 c -70.4637,-79.4119 -105.3045,-194.4339 -138,-283 -48,-130 -72,-342 -48,-420 36,-112 56,-143 137,-204 71,-53 100,-86 109,-124 10,-39 -8,-34 -45,13 -48,61 -66,67 -85,29 -16.2523,-35.0938 -12.9856,-67.1781 -10,-104 l -87,-6 c -88,-6 -125,-23 -157,-72 -19,-30 -3,-37 83,-37 61.3465,-1.3793 112.3651,-4.2417 148,-55 12,-15 9,-47 -2,-40 -128.1434,26.9538 -266.36588,47.4526 -395,21 -51.63793,-3.0466 -93.39462,-48.8356 -38,-62 84.55544,-31.0047 158.92988,-89.5595 222,-158 62,-67 89,-115 120,-214 36,-112 43,-123 97,-151 49.7098,-22.8627 41.6288,-17.6464 32,-69 -10.7818,-158.8482 -46.2556,-386.1467 40,-511 35.5073,-44.3755 50.4277,-74.2013 71,-11 26,87 40,30 42,-165 0,-169 17,-226 78,-272 23,-18 51,-33 62,-33 18,0 20,6 17,71 -2,51 1,73 10,76 9,4 12,-41 12,-203 -12.852,-279.60615 96.0948,-619.77957 421,-629.42048 118,-1 160,43.42048 172,54.42048 22,18 22,40 0,48 -183.2858,98.13106 -228.477,424.03682 -66,558 47.3062,22.50545 94.1917,-19.10417 123,-62 88.547,-131.32926 -30.9079,-242.04846 -50,-378 0,-25 47,-14 150,37 164.4644,94.6783 319.6938,207.62626 307,375 -3,37 -17,102 -32,143 -29,79 -41,158 -28,176 39.4757,29.8944 73.6183,48.1779 118,74 h -35 c -55,0 -235.371,-36.3331 -294.3933,-63.9205 C 2211.8042,1078.2135 2142.4829,980.49703 2066,1110 c -74.8309,132.3421 -287.9957,187.6631 -414,266 -151,103 -233,284 -201,446 25,125 88,227 168,272 53,30 172,28 224,-4 79.955,-55.7782 7.2657,-63.8723 -29,-62 -95,6 -161,-41 -185,-130 -19.5097,-168.1927 67.1303,-307.3379 216,-390 120.9248,-61.9749 238.4426,-134.9644 307,-228 33.1714,-42.2967 39.4457,-73.4264 86,-45 106.9641,70.7221 361.5483,66.2576 443,133 5.3866,97.7676 11.6364,238.3037 70,279.4619 144.3311,99.1615 188.9897,233.4212 138.2898,378.4139 -75.2154,152.4112 -76.6616,283.3861 5.3413,195.882 190.2912,153.2219 -225.425,369.9058 -2.6311,361.2422 49.538,14.2235 146.5298,216.1496 153,362 1,113 -87,282 -182,385 -51.5861,72.7116 -79.387,63.882 -73,-23 10,-138 4,-199 -22,-252 -29,-56 -76,-111 -86,-100 4.5447,18.6286 27.4998,27.9579 28,50 0,23 -4,25 -45,25 -94.8055,-4.5036 -138.3968,-90.9441 -159,12 -21.1562,73.4685 -186.5851,180.4011 -254,159 -19.0514,-30.0916 -6.5763,-65.2365 -19,-99 -9,-24 -13,-22 -160,98 -94.0588,51.0891 -226.6917,102.4824 -331,98 -58,-4 -67,-27 -26,-69 34,-36 28,-44 -17,-23 -67.2575,28.5075 -240.0681,139.4878 -268,203 -38.6381,103.3649 -68.566,214.627 -77,324 -8,114 -15,118 -79,55 z"
       id="path62"
       inkscape:connector-curvature="0"
       sodipodi:nodetypes="ccccccccccccccccccccccccsccccccccccccccscccccccccccccccccccccccccccccccc" />
  </g>
</svg>
