<?xml version="1.0" encoding="UTF-8" standalone="no"?>
<svg
   xmlns:dc="http://purl.org/dc/elements/1.1/"
   xmlns:cc="http://creativecommons.org/ns#"
   xmlns:rdf="http://www.w3.org/1999/02/22-rdf-syntax-ns#"
   xmlns:svg="http://www.w3.org/2000/svg"
   xmlns="http://www.w3.org/2000/svg"
   xmlns:sodipodi="http://sodipodi.sourceforge.net/DTD/sodipodi-0.dtd"
   xmlns:inkscape="http://www.inkscape.org/namespaces/inkscape"
   version="1.0"
   width="400.000000pt"
   height="400.000000pt"
   viewBox="0 0 400.000000 400.000000"
   preserveAspectRatio="xMidYMid meet"
   id="svg66"
   sodipodi:docname="WhiteSatyr.svg"
   inkscape:version="0.92.4 (5da689c313, 2019-01-14)">
  <defs
     id="defs70" />
  <sodipodi:namedview
     pagecolor="#ffffff"
     bordercolor="#666666"
     borderopacity="1"
     objecttolerance="10"
     gridtolerance="10"
     guidetolerance="10"
     inkscape:pageopacity="0"
     inkscape:pageshadow="2"
     inkscape:window-width="1366"
     inkscape:window-height="671"
     id="namedview68"
     showgrid="false"
     inkscape:zoom="0.90509668"
     inkscape:cx="550.56476"
     inkscape:cy="239.70026"
     inkscape:window-x="0"
     inkscape:window-y="339"
     inkscape:window-maximized="1"
     inkscape:current-layer="svg66" />
  <metadata
     id="metadata60">
Created by potrace 1.15, written by Peter Selinger 2001-2017
<rdf:RDF>
  <cc:Work
     rdf:about="">
    <dc:format>image/svg+xml</dc:format>
    <dc:type
       rdf:resource="http://purl.org/dc/dcmitype/StillImage" />
    <dc:title></dc:title>
  </cc:Work>
</rdf:RDF>
</metadata>
  <g
     transform="translate(0.000000,400.000000) scale(0.100000,-0.100000)"
     fill="#000000"
     stroke="none"
     id="g64">
    <path
       d="m 1275,3788 c -70.4637,-79.4119 -105.3045,-194.4339 -138,-283 -48,-130 -72,-342 -48,-420 36,-112 56,-143 137,-204 71,-53 100,-86 109,-124 10,-39 -8,-34 -45,13 -48,61 -66,67 -85,29 -16.2523,-35.0938 -12.9856,-67.1781 -10,-104 l -87,-6 c -88,-6 -125,-23 -157,-72 -19,-30 -3,-37 83,-37 61.3465,-1.3793 112.3651,-4.2417 148,-55 12,-15 9,-47 -2,-40 -128.1434,26.9538 -266.36588,47.4526 -395,21 -51.63793,-3.0466 -93.39462,-48.8356 -38,-62 84.55544,-31.0047 158.92988,-89.5595 222,-158 62,-67 89,-115 120,-214 36,-112 43,-123 97,-151 49.7098,-22.8627 41.6288,-17.6464 32,-69 -10.7818,-158.8482 -46.2556,-386.1467 40,-511 35.5073,-44.3755 50.4277,-74.2013 71,-11 26,87 40,30 42,-165 0,-169 17,-226 78,-272 23,-18 51,-33 62,-33 18,0 20,6 17,71 -2,51 1,73 10,76 9,4 12,-41 12,-203 -12.852,-279.60615 96.0948,-619.77957 421,-629.42048 118,-1 160,43.42048 172,54.42048 22,18 22,40 0,48 -183.2858,98.13106 -228.477,424.03682 -66,558 47.3062,22.50545 94.1917,-19.10417 123,-62 88.547,-131.32926 -30.9079,-242.04846 -50,-378 0,-25 47,-14 150,37 164.4644,94.6783 319.6938,207.62626 307,375 -3,37 -17,102 -32,143 -29,79 -41,158 -28,176 39.4757,29.8944 73.6183,48.1779 118,74 h -35 c -55,0 -235.371,-36.3331 -294.3933,-63.9205 C 2211.8042,1078.2135 2142.4829,980.49703 2066,1110 c -74.8309,132.3421 -287.9957,187.6631 -414,266 -151,103 -233,284 -201,446 25,125 88,227 168,272 53,30 172,28 224,-4 79.955,-55.7782 7.2657,-63.8723 -29,-62 -95,6 -161,-41 -185,-130 -19.5097,-168.1927 67.1303,-307.3379 216,-390 120.9248,-61.9749 238.4426,-134.9644 307,-228 33.1714,-42.2967 39.4457,-73.4264 86,-45 106.9641,70.7221 361.5483,66.2576 443,133 5.3866,97.7676 11.6364,238.3037 70,279.4619 144.3311,99.1615 188.9897,233.4212 138.2898,378.4139 -75.2154,152.4112 -76.6616,283.3861 5.3413,195.882 190.2912,153.2219 -225.425,369.9058 -2.6311,361.2422 49.538,14.2235 146.5298,216.1496 153,362 1,113 -87,282 -182,385 -51.5861,72.7116 -79.387,63.882 -73,-23 10,-138 4,-199 -22,-252 -29,-56 -76,-111 -86,-100 4.5447,18.6286 27.4998,27.9579 28,50 0,23 -4,25 -45,25 -94.8055,-4.5036 -138.3968,-90.9441 -159,12 -21.1562,73.4685 -186.5851,180.4011 -254,159 -19.0514,-30.0916 -6.5763,-65.2365 -19,-99 -9,-24 -13,-22 -160,98 -94.0588,51.0891 -226.6917,102.4824 -331,98 -58,-4 -67,-27 -26,-69 34,-36 28,-44 -17,-23 -67.2575,28.5075 -240.0681,139.4878 -268,203 -38.6381,103.3649 -68.566,214.627 -77,324 -8,114 -15,118 -79,55 z"
       id="path62"
       inkscape:connector-curvature="0"
       sodipodi:nodetypes="ccccccccccccccccccccccccsccccccccccccccscccccccccccccccccccccccccccccccc" />
  </g>
  <path
     style="fill:#ffffff;stroke-width:1.10485435"
     d="m 247.03736,506.52883 c -17.62019,-6.00621 -29.98955,-21.4572 -36.43346,-45.51032 -1.95757,-7.30698 -2.49684,-13.37891 -3.11162,-35.03503 -0.409,-14.4079 -1.12199,-26.57452 -1.58439,-27.03694 -1.72784,-1.72784 -2.89699,2.67546 -2.91339,10.97245 -0.009,4.70944 -0.28532,8.56262 -0.61336,8.56262 -2.21848,0 -9.69048,-5.03098 -12.45735,-8.38769 -4.72639,-5.73392 -5.84045,-11.48886 -6.82457,-35.25405 -1.08619,-26.22964 -2.26508,-30.04532 -6.14444,-19.88738 -1.04432,2.73451 -2.50937,4.97184 -3.25568,4.97184 -1.91814,0 -6.87173,-7.48705 -9.59244,-14.49839 -3.68117,-9.48645 -3.93045,-35.59935 -0.60416,-63.28811 0.17479,-1.45504 -1.28076,-3.01033 -4.71909,-5.04245 -6.31237,-3.73073 -9.05713,-7.84084 -12.78895,-19.1507 -5.23129,-15.85423 -8.64459,-21.40171 -20.28304,-32.9651 -8.84483,-8.78779 -12.29244,-11.39429 -19.72881,-14.91553 -4.95609,-2.34679 -9.024558,-4.87692 -9.041053,-5.6225 -0.147273,-6.65673 32.667363,-7.88973 59.842063,-2.24853 2.24863,0.4668 2.36255,-4.65987 0.15769,-7.0962 -3.73713,-4.12949 -8.36525,-5.64176 -18.96223,-6.19605 -11.58526,-0.60599 -13.24035,-1.80988 -8.8903,-6.46676 4.1689,-4.46293 7.90566,-5.84978 18.87551,-7.00538 5.64668,-0.59484 10.63958,-1.09015 11.09533,-1.10068 0.45576,-0.011 0.82864,-2.48168 0.82864,-5.49143 0,-6.25209 1.82044,-11.10053 4.16791,-11.10053 0.88193,0 4.10811,2.73451 7.16929,6.0767 6.11482,6.67612 7.44739,7.31916 7.4412,3.59077 -0.007,-3.92256 -3.60355,-8.83932 -11.19108,-15.29701 -16.63816,-14.16062 -21.51315,-22.43982 -22.70779,-38.56463 -1.98777,-26.830321 15.06188,-78.119199 29.35104,-88.293974 l 3.44512,-2.453146 0.94953,2.560452 c 0.52224,1.408248 1.29014,6.537927 1.70645,11.399286 0.86767,10.131919 3.87758,23.839037 7.92439,36.087653 3.20046,9.686942 7.26518,14.185099 21.46239,23.751034 17.697,11.924055 26.81612,14.589515 19.28231,5.636095 -1.54813,-1.83984 -2.66679,-4.113188 -2.48592,-5.051879 0.84757,-4.398823 14.91645,-3.703261 30.42996,1.50445 11.77564,3.952959 17.90206,7.337649 27.91809,15.424029 11.57342,9.34374 14.34876,9.3415 14.34876,-0.0116 0,-5.78753 0.95378,-7.18155 4.91359,-7.18155 8.9173,0 27.60345,13.71611 29.94706,21.98192 1.66147,5.85992 3.67321,6.48415 11.75212,3.64663 8.90534,-3.12778 15.25907,-3.27443 15.25907,-0.35219 0,1.14094 -0.74577,2.69337 -1.65728,3.44985 -1.82923,1.51813 -2.2447,4.41942 -0.63286,4.41942 1.70841,0 7.7093,-7.91303 10.89233,-14.36311 2.86302,-5.80158 3.00253,-6.86411 3.08146,-23.46876 0.0455,-9.565627 0.39692,-17.706296 0.78099,-18.09037 1.44714,-1.447144 4.01156,0.753196 10.87401,9.330206 12.52764,15.657604 20.85553,34.177934 20.85553,46.380444 0,8.64337 -3.38947,21.4505 -8.61875,32.5659 -5.4434,11.57058 -9.33243,16.25928 -13.48619,16.25928 -8.3138,0 -8.62326,3.43185 -1.25551,13.92317 10.91865,15.54757 12.84126,23.53171 7.26293,30.16117 -2.72045,3.23307 -2.95125,3.30089 -5.51573,1.62057 -7.58031,-4.9668 -8.04321,6.22252 -0.98879,23.90091 3.66783,9.19161 4.19437,11.66331 4.23651,19.88738 0.0747,14.57245 -2.35504,18.70918 -21.47037,36.55464 -3.76344,3.51342 -6.42991,12.04584 -7.22135,23.1075 -0.90915,12.70687 -1.10322,13.18374 -6.2932,15.46326 -2.55992,1.12437 -13.35513,3.85164 -23.98936,6.06059 -11.80435,2.45203 -22.03513,5.26463 -26.26773,7.22141 -3.81303,1.7628 -7.54191,2.96906 -8.28641,2.68057 -0.74449,-0.28847 -2.53181,-2.2502 -3.97181,-4.35938 -7.12931,-10.44234 -19.93863,-20.25162 -44.5082,-34.08405 -16.74652,-9.42812 -27.47123,-26.96326 -27.44092,-44.86647 0.0218,-12.87263 9.15223,-22.14117 21.8112,-22.14117 12.62221,0 15.24078,-4.95637 5.24737,-9.9321 -4.50799,-2.24455 -7.15031,-2.74906 -14.36311,-2.74247 -14.4776,0.0133 -22.90326,5.74896 -30.55823,20.80239 -3.96384,7.79486 -7.56532,21.27509 -7.54291,28.23289 0.046,14.27395 7.41441,30.73969 18.92647,42.29363 6.59522,6.61922 9.37029,8.37032 26.56816,16.76487 22.80305,11.13052 31.11786,16.93294 37.29089,26.02314 2.49043,3.66731 5.58365,7.23278 6.87383,7.92326 3.94348,2.1105 10.27669,0.39698 20.64106,-5.58466 5.44552,-3.14279 12.31014,-6.45109 15.25472,-7.35179 8.66216,-2.64958 25.67089,-5.94479 30.61084,-5.93042 l 4.57401,0.0133 -4.97185,2.83573 c -2.73451,1.55965 -5.84192,3.61945 -6.90534,4.57735 -2.93444,2.64323 -2.42629,10.59859 1.4745,23.08413 4.30745,13.78716 5.37537,26.66817 2.83025,34.1377 -2.65639,7.79607 -9.84581,16.33801 -20.50918,24.3675 -10.65391,8.02235 -29.99107,18.15199 -34.63991,18.14588 -2.77698,-0.003 -2.99216,-0.28452 -2.33103,-3.04238 0.40062,-1.67109 1.9396,-6.27005 3.41997,-10.2199 7.71442,-20.58335 8.43255,-25.88447 4.63975,-34.25049 -3.68613,-8.13074 -9.77503,-13.25825 -15.74412,-13.25825 -3.31359,0 -10.06305,7.16424 -12.99601,13.79468 -4.12656,9.32878 -4.66422,25.33643 -1.22547,36.48637 3.1456,10.19945 13.14386,23.53966 19.04671,25.41316 2.7012,0.85732 2.81064,4.04052 0.21953,6.38545 -7.4099,6.70587 -24.37871,8.38588 -37.95579,3.75784 z"
     id="path3711"
     inkscape:connector-curvature="0"
     transform="scale(0.75000003)" />
</svg>
