<?xml version="1.0" standalone="no"?>
<!DOCTYPE svg PUBLIC "-//W3C//DTD SVG 20010904//EN"
 "http://www.w3.org/TR/2001/REC-SVG-20010904/DTD/svg10.dtd">
<svg version="1.0" xmlns="http://www.w3.org/2000/svg"
 width="400.000000pt" height="400.000000pt" viewBox="0 0 400.000000 400.000000"
 preserveAspectRatio="xMidYMid meet">
<metadata>
Created by potrace 1.15, written by Peter Selinger 2001-2017
</metadata>
<g transform="translate(0.000000,400.000000) scale(0.100000,-0.100000)"
fill="#000000" stroke="none">
<path d="M1275 3788 c-24 -25 -52 -67 -65 -98 -51 -127 -59 -147 -73 -185 -48
-130 -72 -342 -48 -420 36 -112 56 -143 137 -204 71 -53 100 -86 109 -124 10
-39 -8 -34 -45 13 -48 61 -66 67 -85 29 -9 -17 -15 -47 -13 -67 l3 -37 -87 -6
c-88 -6 -125 -23 -157 -72 -19 -30 -3 -37 83 -37 71 0 88 -3 112 -22 16 -12
32 -27 36 -33 12 -15 9 -47 -2 -40 -18 11 -202 34 -270 34 -36 0 -92 -6 -125
-13 -49 -10 -61 -16 -63 -34 -3 -16 3 -23 25 -28 15 -4 40 -15 55 -25 14 -11
29 -19 33 -19 11 0 96 -72 134 -114 62 -67 89 -115 120 -214 36 -112 43 -123
97 -151 l41 -21 -9 -48 c-16 -87 -21 -287 -8 -375 10 -72 18 -93 48 -136 21
-28 42 -51 48 -51 6 0 16 18 23 40 26 87 40 30 42 -165 0 -169 17 -226 78
-272 23 -18 51 -33 62 -33 18 0 20 6 17 71 -2 51 1 73 10 76 9 4 12 -41 12
-203 0 -236 10 -296 68 -404 43 -81 81 -122 146 -157 49 -26 57 -27 207 -27
118 -1 160 2 172 13 22 18 22 40 0 48 -71 25 -142 128 -165 235 -10 49 -9 64
6 115 39 124 69 193 93 208 22 15 27 14 61 -5 21 -12 49 -37 62 -57 22 -33 25
-47 25 -133 0 -74 -4 -103 -18 -123 -9 -14 -17 -33 -17 -40 0 -8 -9 -26 -20
-40 -11 -14 -20 -33 -20 -42 0 -25 47 -14 150 37 143 70 229 144 279 242 31
60 33 69 28 133 -3 37 -17 102 -32 143 -29 79 -41 158 -28 176 4 5 33 24 63
42 l55 32 -35 0 c-55 0 -201 -26 -240 -43 -103 -46 -268 -107 -286 -107 -26 0
-38 14 -53 60 -12 38 -60 100 -78 100 -6 0 -16 6 -22 14 -13 16 -86 56 -101
56 -14 0 -161 71 -198 96 -151 103 -233 284 -201 446 25 125 88 227 168 272
53 30 172 28 224 -4 28 -16 37 -28 35 -44 -3 -19 -8 -21 -64 -18 -95 6 -161
-41 -185 -130 -14 -54 10 -149 58 -230 33 -55 111 -135 158 -160 13 -7 61 -33
106 -58 99 -53 142 -89 201 -170 23 -33 48 -60 53 -60 6 0 20 7 33 15 29 21
104 44 172 54 77 12 211 48 223 60 6 6 19 11 29 11 10 0 18 3 19 8 0 4 2 45 4
92 1 47 6 93 10 102 4 10 29 31 56 47 68 43 124 95 153 146 22 37 26 56 26
125 0 55 -6 99 -20 137 -11 32 -20 63 -20 70 0 26 29 12 65 -30 l36 -42 25 28
c22 26 24 36 24 130 -1 84 -5 112 -24 156 -23 54 -82 130 -102 131 -12 0 -54
54 -54 70 0 6 14 23 32 38 60 51 100 128 119 232 10 52 18 118 19 145 1 113
-72 282 -167 385 -12 14 -29 34 -37 45 -26 35 -42 4 -36 -68 10 -138 4 -199
-22 -252 -29 -56 -76 -111 -86 -100 -4 3 1 11 11 16 9 6 17 21 17 34 0 23 -4
25 -45 25 -24 0 -67 -9 -94 -20 -28 -11 -52 -16 -54 -12 -3 4 -7 24 -11 44 -5
26 -17 46 -39 63 -42 34 -201 105 -215 96 -7 -4 -11 -22 -11 -41 1 -19 -3 -45
-8 -58 -9 -24 -13 -22 -160 98 -7 6 -16 10 -20 10 -5 0 -20 8 -33 18 -54 37
-201 75 -278 70 -58 -4 -67 -27 -26 -69 34 -36 28 -44 -17 -23 -32 14 -45 21
-94 48 -37 21 -170 139 -174 155 -2 9 -7 21 -11 26 -19 24 -60 207 -66 298 -8
114 -15 118 -79 55z"/>
</g>
</svg>
